<svg width="52" height="36" viewBox="0 0 52 36" fill="none" xmlns="http://www.w3.org/2000/svg">
<path d="M34.8511 18.5721C34.8037 21.9844 33.7593 25.3059 31.8501 28.1165C29.9409 30.927 27.2526 33.1005 24.1251 34.3619C20.9976 35.6234 17.5714 35.9162 14.2798 35.2033C10.9882 34.4905 7.97893 32.804 5.63265 30.3571C3.28637 27.9102 1.70841 24.8128 1.09831 21.4567C0.488219 18.1005 0.873391 14.6363 2.20512 11.502C3.53685 8.36782 5.75533 5.70439 8.58001 3.84854C11.4047 1.99269 14.7087 1.02779 18.0743 1.07585L17.9634 9.0542C16.1542 9.02837 14.3781 9.54707 12.8596 10.5447C11.3411 11.5424 10.1485 12.9742 9.43261 14.659C8.71671 16.3439 8.50965 18.2062 8.83762 20.0104C9.16559 21.8146 10.0139 23.4796 11.2752 24.795C12.5365 26.1104 14.1541 27.017 15.9236 27.4002C17.6931 27.7834 19.5349 27.626 21.2162 26.9479C22.8975 26.2698 24.3426 25.1014 25.369 23.5905C26.3953 22.0796 26.9567 20.2941 26.9822 18.4597L34.8511 18.5721Z" fill="#0053B4"/>
<path d="M33.7967 34.9254C37.1623 34.9734 40.4663 34.0085 43.291 32.1527C46.1157 30.2969 48.3341 27.6334 49.6659 24.4992C50.9976 21.365 51.3828 17.9007 50.7727 14.5446C50.1626 11.1884 48.5846 8.09104 46.2383 5.64415C43.8921 3.19726 40.8828 1.51075 37.5912 0.797898C34.2996 0.0850418 30.8734 0.377852 27.7459 1.6393C24.6184 2.90076 21.9301 5.07419 20.0209 7.88476C18.1116 10.6953 17.0673 14.0168 17.0199 17.4292L24.8888 17.5415C24.9143 15.7072 25.4757 13.9216 26.502 12.4107C27.5284 10.8998 28.9735 9.73146 30.6548 9.05334C32.336 8.37522 34.1779 8.21781 35.9474 8.60102C37.7169 8.98423 39.3345 9.89085 40.5958 11.2062C41.8571 12.5216 42.7054 14.1867 43.0334 15.9909C43.3613 17.7951 43.1543 19.6573 42.4384 21.3422C41.7225 23.0271 40.5299 24.4589 39.0114 25.4565C37.4929 26.4542 35.7168 26.9729 33.9076 26.947L33.7967 34.9254Z" fill="#0053B4"/>
</svg>
