<svg width="167" height="41" viewBox="0 0 167 41" fill="none" xmlns="http://www.w3.org/2000/svg">
<path d="M26.8801 20.9509C26.8427 23.646 26.0179 26.2692 24.51 28.489C23.0021 30.7087 20.8789 32.4253 18.4089 33.4216C15.9388 34.4178 13.2329 34.6491 10.6332 34.0861C8.03351 33.5231 5.65686 32.1911 3.8038 30.2586C1.95074 28.3261 0.704491 25.8798 0.222647 23.2292C-0.259198 20.5785 0.0450057 17.8425 1.09679 15.3671C2.14857 12.8918 3.90069 10.7882 6.13159 9.32251C8.36248 7.85679 10.972 7.09472 13.63 7.13268L13.5425 13.4339C12.1136 13.4135 10.7108 13.8231 9.51153 14.6111C8.31226 15.399 7.37037 16.5298 6.80496 17.8605C6.23955 19.1912 6.07602 20.662 6.33505 22.0869C6.59407 23.5118 7.26402 24.8269 8.26018 25.8657C9.25633 26.9046 10.534 27.6206 11.9315 27.9233C13.329 28.226 14.7836 28.1016 16.1115 27.5661C17.4393 27.0305 18.5807 26.1077 19.3913 24.9144C20.2019 23.7212 20.6453 22.311 20.6654 20.8622L26.8801 20.9509Z" fill="url(#paint0_linear_3574_85429)"/>
<path d="M26.0474 33.8666C28.7055 33.9045 31.3149 33.1425 33.5458 31.6767C35.7767 30.211 37.5288 28.1075 38.5806 25.6321C39.6324 23.1567 39.9366 20.4207 39.4548 17.7701C38.9729 15.1194 37.7267 12.6732 35.8736 10.7407C34.0206 8.80814 31.6439 7.47616 29.0442 6.91315C26.4445 6.35015 23.7386 6.58141 21.2685 7.57768C18.7985 8.57396 16.6753 10.2905 15.1674 12.5103C13.6595 14.73 12.8347 17.3533 12.7973 20.0483L19.012 20.1371C19.0322 18.6883 19.4756 17.2781 20.2861 16.0848C21.0967 14.8915 22.2381 13.9688 23.5659 13.4332C24.8938 12.8976 26.3484 12.7733 27.7459 13.076C29.1435 13.3786 30.4211 14.0946 31.4172 15.1335C32.4134 16.1724 33.0833 17.4874 33.3424 18.9123C33.6014 20.3373 33.4379 21.8081 32.8725 23.1388C32.307 24.4694 31.3652 25.6003 30.1659 26.3882C28.9666 27.1761 27.5638 27.5858 26.1349 27.5654L26.0474 33.8666Z" fill="url(#paint1_linear_3574_85429)"/>
<path d="M53.2771 30.1913C52.0016 30.1913 50.8536 29.9727 49.8331 29.5353C48.8127 29.0798 48.0109 28.442 47.4278 27.622C46.8447 26.802 46.5531 25.8453 46.5531 24.752H49.8878C49.9607 25.572 50.2796 26.2462 50.8444 26.7747C51.4276 27.3031 52.2384 27.5673 53.2771 27.5673C54.3522 27.5673 55.1904 27.3122 55.7918 26.802C56.3931 26.2736 56.6938 25.5993 56.6938 24.7793C56.6938 24.1416 56.5024 23.6222 56.1198 23.2213C55.7553 22.8204 55.2907 22.5107 54.7258 22.292C54.1791 22.0733 53.4138 21.8364 52.4298 21.5813C51.1907 21.2533 50.1793 20.9253 49.3958 20.5973C48.6304 20.2511 47.9744 19.7227 47.4278 19.012C46.8811 18.3013 46.6078 17.3538 46.6078 16.1693C46.6078 15.076 46.8811 14.1193 47.4278 13.2993C47.9744 12.4793 48.7398 11.8507 49.7238 11.4133C50.7078 10.976 51.8467 10.7573 53.1404 10.7573C54.9809 10.7573 56.4842 11.222 57.6504 12.1513C58.8349 13.0624 59.4909 14.3198 59.6184 15.9233H56.1744C56.1198 15.2309 55.7918 14.6387 55.1904 14.1467C54.5891 13.6547 53.7964 13.4087 52.8124 13.4087C51.9196 13.4087 51.1907 13.6364 50.6258 14.092C50.0609 14.5476 49.7784 15.2036 49.7784 16.06C49.7784 16.6431 49.9516 17.126 50.2978 17.5087C50.6622 17.8731 51.1178 18.1647 51.6644 18.3833C52.2111 18.602 52.9582 18.8389 53.9058 19.094C55.1631 19.4402 56.1836 19.7864 56.9671 20.1327C57.7689 20.4789 58.4431 21.0164 58.9898 21.7453C59.5547 22.456 59.8371 23.4127 59.8371 24.6153C59.8371 25.5811 59.5729 26.4922 59.0444 27.3487C58.5342 28.2051 57.778 28.8976 56.7758 29.426C55.7918 29.9362 54.6256 30.1913 53.2771 30.1913ZM83.7405 14.9393L79.0665 30H75.7865L72.7525 18.8753L69.7185 30H66.4385L61.7372 14.9393H64.9079L68.0512 27.048L71.2492 14.9393H74.5019L77.5632 26.9933L80.6792 14.9393H83.7405ZM87.6545 12.944C87.0896 12.944 86.6159 12.7527 86.2332 12.37C85.8505 11.9873 85.6592 11.5136 85.6592 10.9487C85.6592 10.3838 85.8505 9.91 86.2332 9.52734C86.6159 9.14467 87.0896 8.95333 87.6545 8.95333C88.2012 8.95333 88.6659 9.14467 89.0485 9.52734C89.4312 9.91 89.6225 10.3838 89.6225 10.9487C89.6225 11.5136 89.4312 11.9873 89.0485 12.37C88.6659 12.7527 88.2012 12.944 87.6545 12.944ZM89.1852 14.9393V30H86.0692V14.9393H89.1852ZM96.9116 17.4813V25.818C96.9116 26.3829 97.0391 26.7929 97.2942 27.048C97.5676 27.2849 98.0231 27.4033 98.6609 27.4033H100.574V30H98.1142C96.7111 30 95.636 29.672 94.8889 29.016C94.1418 28.36 93.7682 27.294 93.7682 25.818V17.4813H91.9916V14.9393H93.7682V11.1947H96.9116V14.9393H100.574V17.4813H96.9116ZM109.76 17.4813H106.972V30H103.829V17.4813H102.052V14.9393H103.829V13.8733C103.829 12.1422 104.284 10.8849 105.195 10.1013C106.125 9.29956 107.573 8.89867 109.541 8.89867V11.4953C108.594 11.4953 107.929 11.6776 107.546 12.042C107.163 12.3882 106.972 12.9987 106.972 13.8733V14.9393H109.76V17.4813ZM116.157 17.4813V25.818C116.157 26.3829 116.285 26.7929 116.54 27.048C116.813 27.2849 117.269 27.4033 117.906 27.4033H119.82V30H117.36C115.957 30 114.881 29.672 114.134 29.016C113.387 28.36 113.014 27.294 113.014 25.818V17.4813H111.237V14.9393H113.014V11.1947H116.157V14.9393H119.82V17.4813H116.157Z" fill="#393939"/>
<path d="M128.158 30.246C126.974 30.246 125.908 30.0364 124.96 29.6173C124.031 29.18 123.293 28.5969 122.746 27.868C122.2 27.1209 121.908 26.2918 121.872 25.3807H125.097C125.152 26.0184 125.452 26.556 125.999 26.9933C126.564 27.4124 127.265 27.622 128.104 27.622C128.978 27.622 129.652 27.458 130.126 27.13C130.618 26.7838 130.864 26.3464 130.864 25.818C130.864 25.2531 130.591 24.834 130.044 24.5607C129.516 24.2873 128.668 23.9867 127.502 23.6587C126.372 23.3489 125.452 23.0482 124.742 22.7567C124.031 22.4651 123.411 22.0187 122.883 21.4173C122.373 20.816 122.118 20.0233 122.118 19.0393C122.118 18.2376 122.354 17.5087 122.828 16.8527C123.302 16.1784 123.976 15.65 124.851 15.2673C125.744 14.8847 126.764 14.6933 127.912 14.6933C129.625 14.6933 131.001 15.1307 132.04 16.0053C133.096 16.8618 133.661 18.0371 133.734 19.5313H130.618C130.564 18.8571 130.29 18.3196 129.798 17.9187C129.306 17.5178 128.641 17.3173 127.803 17.3173C126.983 17.3173 126.354 17.4722 125.917 17.782C125.48 18.0918 125.261 18.5018 125.261 19.012C125.261 19.4129 125.407 19.75 125.698 20.0233C125.99 20.2967 126.345 20.5153 126.764 20.6793C127.183 20.8251 127.803 21.0164 128.623 21.2533C129.716 21.5449 130.609 21.8456 131.302 22.1553C132.012 22.4469 132.623 22.8842 133.133 23.4673C133.643 24.0504 133.907 24.8249 133.926 25.7907C133.926 26.6471 133.689 27.4124 133.215 28.0867C132.741 28.7609 132.067 29.2893 131.192 29.672C130.336 30.0547 129.324 30.246 128.158 30.246ZM151.096 22.1007C151.096 22.6656 151.059 23.1758 150.986 23.6313H139.479C139.57 24.834 140.017 25.7998 140.818 26.5287C141.62 27.2576 142.604 27.622 143.77 27.622C145.447 27.622 146.631 26.9204 147.324 25.5173H150.686C150.23 26.9022 149.401 28.0411 148.198 28.934C147.014 29.8087 145.538 30.246 143.77 30.246C142.331 30.246 141.037 29.9271 139.889 29.2893C138.759 28.6333 137.867 27.7222 137.211 26.556C136.573 25.3716 136.254 24.0049 136.254 22.456C136.254 20.9071 136.564 19.5496 137.183 18.3833C137.821 17.1989 138.705 16.2878 139.835 15.65C140.982 15.0122 142.294 14.6933 143.77 14.6933C145.192 14.6933 146.458 15.0031 147.57 15.6227C148.681 16.2422 149.547 17.1169 150.166 18.2467C150.786 19.3582 151.096 20.6429 151.096 22.1007ZM147.843 21.1167C147.825 19.9687 147.415 19.0484 146.613 18.356C145.811 17.6636 144.818 17.3173 143.634 17.3173C142.559 17.3173 141.638 17.6636 140.873 18.356C140.108 19.0302 139.652 19.9504 139.506 21.1167H147.843ZM157.278 9.77334V30H154.162V9.77334H157.278ZM164.485 9.77334V30H161.369V9.77334H164.485Z" fill="#8D8D8D"/>
<defs>
<linearGradient id="paint0_linear_3574_85429" x1="16.8671" y1="10.4699" x2="35.8719" y2="29.7495" gradientUnits="userSpaceOnUse">
<stop stop-color="#5596E1"/>
<stop offset="1" stop-color="#00244E"/>
</linearGradient>
<linearGradient id="paint1_linear_3574_85429" x1="16.8671" y1="10.4699" x2="35.8719" y2="29.7495" gradientUnits="userSpaceOnUse">
<stop stop-color="#5596E1"/>
<stop offset="1" stop-color="#00244E"/>
</linearGradient>
</defs>
</svg>
